<svg width="61" height="72" viewBox="0 0 61 72" fill="none" xmlns="http://www.w3.org/2000/svg">
<g clip-path="url(#clip0)">
<mask id="mask0" mask-type="alpha" maskUnits="userSpaceOnUse" x="9" y="7" width="40" height="58">
<path d="M43.1034 7.18799C43.1034 7.18799 41.9905 8.83182 41.9828 8.86037L9.60301 59.5033C9.27768 59.7836 9.08677 60.0751 9.04567 60.3745L9.03625 60.3883H9.0431C9.03882 60.4247 9.03625 60.461 9.03625 60.4965C9.03625 62.7615 17.5959 64.5983 28.1537 64.5983C38.7115 64.5983 47.2711 62.7624 47.2711 60.4965C47.2711 60.4601 47.2685 60.4247 47.2642 60.3883H47.2711L47.6666 47.2541L48.7847 7.18799H43.0683L9.6287 59.5309L43.0692 7.18799H43.1034Z" fill="white"/>
</mask>
<g mask="url(#mask0)">
<ellipse cx="30.7453" cy="41.588" rx="29.8114" ry="29.695" fill="white"/>
</g>
</g>
<g clip-path="url(#clip1)">
<path d="M0.84436 41.8629C0.84436 58.4002 14.2499 71.8073 30.7871 71.8073C37.2137 71.8073 43.4698 69.7399 48.6309 65.9105C53.792 62.0812 57.5842 56.693 59.4473 50.5424C61.3103 44.3918 61.1452 37.8051 58.9765 31.7555C56.8077 25.7059 52.7504 20.5145 47.404 16.9484L46.1042 59.7961C46.1042 59.8292 46.1042 59.8641 46.1042 59.8989C46.1042 62.0226 37.9922 63.7451 27.9837 63.7451C17.9751 63.7451 9.86317 62.0226 9.86317 59.9022C9.86317 59.8674 9.86317 59.8342 9.86317 59.7994V59.7861C9.93267 59.4578 10.121 59.1667 10.392 58.9688L39.8905 13.326C36.9484 12.3906 33.8793 11.9158 30.7921 11.9185C14.2549 11.9185 0.84436 25.3257 0.84436 41.8629Z" fill="#6F6EFF"/>
<path d="M39.4595 48.9782H35.9067V46.639C35.9064 46.4075 35.8376 46.1812 35.7089 45.9888C35.5802 45.7963 35.3973 45.6463 35.1835 45.5576C34.9696 45.469 34.7343 45.4456 34.5072 45.4905C34.28 45.5355 34.0713 45.6466 33.9073 45.81L29.2238 50.4952C29.1147 50.6039 29.0282 50.7331 28.9691 50.8754C28.9101 51.0176 28.8797 51.1701 28.8797 51.3241C28.8797 51.4781 28.9101 51.6306 28.9691 51.7729C29.0282 51.9151 29.1147 52.0443 29.2238 52.1531L31.9096 54.8388L28.6369 58.1098C28.5281 58.2186 28.4417 58.3479 28.3828 58.4901C28.3239 58.6323 28.2936 58.7848 28.2936 58.9387C28.2936 59.0927 28.3239 59.2451 28.3828 59.3873C28.4417 59.5296 28.5281 59.6588 28.6369 59.7677C28.7458 59.8765 28.875 59.9629 29.0173 60.0218C29.1595 60.0807 29.3119 60.111 29.4659 60.111C29.6198 60.111 29.7723 60.0807 29.9145 60.0218C30.0567 59.9629 30.1859 59.8765 30.2948 59.7677L34.3947 55.6677C34.5038 55.559 34.5903 55.4298 34.6494 55.2876C34.7084 55.1453 34.7388 54.9928 34.7388 54.8388C34.7388 54.6848 34.7084 54.5323 34.6494 54.39C34.5903 54.2478 34.5038 54.1186 34.3947 54.0099L31.709 51.3241L33.5658 49.4574V50.1437C33.5658 50.4541 33.6891 50.7518 33.9086 50.9713C34.1281 51.1909 34.4258 51.3142 34.7362 51.3142H39.4595C39.617 51.3201 39.7741 51.2942 39.9214 51.238C40.0687 51.1818 40.2031 51.0965 40.3167 50.9871C40.4302 50.8778 40.5205 50.7467 40.5822 50.6016C40.6439 50.4565 40.6757 50.3005 40.6757 50.1429C40.6757 49.9853 40.6439 49.8292 40.5822 49.6842C40.5205 49.5391 40.4302 49.408 40.3167 49.2986C40.2031 49.1893 40.0687 49.104 39.9214 49.0478C39.7741 48.9916 39.617 48.9657 39.4595 48.9716V48.9782Z" fill="#6F6EFF"/>
<path d="M31.5796 43.0267C31.3542 42.8771 31.0839 42.81 30.8147 42.8369C30.5454 42.8638 30.2938 42.983 30.1024 43.1743L26.8812 46.3939C26.7723 46.5027 26.686 46.632 26.6271 46.7742C26.5682 46.9164 26.5378 47.0689 26.5378 47.2228C26.5378 47.3767 26.5682 47.5292 26.6271 47.6714C26.686 47.8136 26.7723 47.9429 26.8812 48.0517C26.9901 48.1606 27.1193 48.2469 27.2615 48.3059C27.4037 48.3648 27.5562 48.3951 27.7101 48.3951C27.8641 48.3951 28.0165 48.3648 28.1588 48.3059C28.301 48.2469 28.4302 48.1606 28.5391 48.0517L31.0806 45.5102L31.9377 46.127L33.0816 44.983C33.2741 44.7932 33.4986 44.6389 33.7448 44.5271L31.5796 43.0267Z" fill="#6F6EFF"/>
<path d="M28.3948 52.9775C28.1052 52.6848 27.8986 52.3203 27.7963 51.9214L21.6108 58.1069C21.391 58.3267 21.2675 58.6249 21.2675 58.9358C21.2675 59.2467 21.391 59.5449 21.6108 59.7648C21.8307 59.9846 22.1288 60.1081 22.4397 60.1081C22.7507 60.1081 23.0488 59.9846 23.2687 59.7648L29.2254 53.808L28.3948 52.9775Z" fill="#6F6EFF"/>
<path d="M36.4935 45.4654C37.4641 45.4654 38.2509 44.6786 38.2509 43.708C38.2509 42.7375 37.4641 41.9507 36.4935 41.9507C35.523 41.9507 34.7362 42.7375 34.7362 43.708C34.7362 44.6786 35.523 45.4654 36.4935 45.4654Z" fill="#6F6EFF"/>
<path d="M12.0599 6.05621L10.5495 0.00830078H8.95965L7.46093 6.05621L5.9473 0.00830078H4.36072L6.66681 9.23434H8.25505L9.75377 3.18478L11.2674 9.23434H12.8556L15.1501 0.00830078H13.5735L12.0599 6.05621Z" fill="#6F6EFF"/>
<path d="M16.4318 9.23434H17.1994V9.24761H21.9409V7.69584H17.9686V5.38975H21.1733V3.8529H17.9686V1.54515H21.9409V0.00830078H16.4318V9.23434Z" fill="#6F6EFF"/>
<path d="M28.8093 4.28742C29.0472 4.05921 29.2328 3.78204 29.3531 3.47506C29.4754 3.17154 29.5384 2.84738 29.5388 2.52013C29.5459 1.9679 29.3547 1.43144 28.9999 1.00816C28.7462 0.692758 28.4241 0.439273 28.0578 0.266923C27.6916 0.0945739 27.2909 0.00788571 26.8862 0.0134341H23.7362V9.2345H27.0801C27.5794 9.24001 28.0716 9.11667 28.5092 8.8764C28.9356 8.64048 29.2933 8.29768 29.547 7.88168C29.8092 7.46311 29.9493 6.97965 29.9516 6.48575C29.9355 6.04887 29.8264 5.62044 29.6316 5.22909C29.4432 4.84959 29.1599 4.52522 28.8093 4.28742ZM25.2598 1.35299H26.6574C26.7602 1.35299 26.8563 1.35299 26.9458 1.3646C27.0411 1.37507 27.134 1.40082 27.221 1.44086C27.4369 1.52969 27.6171 1.68773 27.7333 1.89014C27.8516 2.08659 27.9141 2.31156 27.9141 2.54086C27.9141 2.77016 27.8516 2.99512 27.7333 3.19157C27.6189 3.39658 27.4383 3.55671 27.221 3.64582C27.1447 3.67632 27.0652 3.69801 26.984 3.71048C26.8976 3.72721 26.81 3.73609 26.722 3.73701H25.2598V1.35299ZM28.1097 7.24837C27.9664 7.48966 27.7489 7.6781 27.4896 7.78552C27.3672 7.83541 27.2371 7.86401 27.105 7.87008C26.9392 7.88168 26.7154 7.88831 26.4269 7.88831H25.2664V5.0832H26.4269C26.7336 5.0832 26.9574 5.0832 27.1 5.10143C27.2335 5.11319 27.3649 5.1416 27.4913 5.18599C27.7504 5.28438 27.9688 5.46718 28.1113 5.7049C28.2527 5.93823 28.3261 6.20634 28.3235 6.47912C28.323 6.75015 28.2491 7.01598 28.1097 7.24837Z" fill="#6F6EFF"/>
<path d="M33.2823 0.00830078H31.7438V9.24761H33.2823V0.00830078Z" fill="#6F6EFF"/>
<path d="M41.2582 4.8609C41.5461 4.3029 41.6892 3.68152 41.6744 3.05382C41.6744 2.15746 41.4373 1.42745 40.9631 0.863773C40.489 0.300097 39.8258 0.0177068 38.9737 0.0166016H35.5867V9.23436H37.0605V6.15901H38.5526L40.0447 9.23436H41.6727L40.0712 5.94183C40.5815 5.7321 41.0018 5.34943 41.2582 4.8609ZM39.7463 4.36354C39.6043 4.5215 39.4283 4.6452 39.2316 4.72532C39.0349 4.80544 38.8226 4.83989 38.6106 4.82608H37.0605V1.3545H38.6106C38.8203 1.34148 39.0303 1.37501 39.2255 1.45269C39.4206 1.53036 39.5962 1.65026 39.7396 1.80379C40.0049 2.10386 40.1359 2.52662 40.1359 3.07371C40.1359 3.62081 40.0066 4.05849 39.7463 4.36354Z" fill="#6F6EFF"/>
<path d="M44.9437 0.00830078L42.1254 9.23434H43.6506L44.4199 6.73593H47.5963L48.3507 9.23434H49.8759L47.0575 0.00830078H44.9437ZM44.8907 5.19246L46.0064 1.54515L47.1222 5.19246H44.8907Z" fill="#6F6EFF"/>
<path d="M53.4138 3.86616L51.3116 0.00830078H49.5559L52.6197 5.38974V9.23434H54.1449V5.38974L57.2451 0.00830078H55.6038L53.4138 3.86616Z" fill="#6F6EFF"/>
</g>
<defs>
<clipPath id="clip0">
<rect width="37.755" height="53.3778" fill="white" transform="translate(10.0702 10.4224)"/>
</clipPath>
<clipPath id="clip1">
<rect width="59.8872" height="71.799" fill="white" transform="translate(0.849365 0.00830078)"/>
</clipPath>
</defs>
</svg>
